<!DOCTYPE svg PUBLIC "-//W3C//DTD SVG 1.1//EN" "http://www.w3.org/Graphics/SVG/1.1/DTD/svg11.dtd">
<!-- Uploaded to: SVG Repo, www.svgrepo.com, Transformed by: SVG Repo Mixer Tools -->
<svg height="800px" width="800px" version="1.1" id="Layer_1" xmlns="http://www.w3.org/2000/svg" xmlns:xlink="http://www.w3.org/1999/xlink" viewBox="0 0 512 512" xml:space="preserve" fill="#000000">
<g id="SVGRepo_bgCarrier" stroke-width="0"/>
<g id="SVGRepo_tracerCarrier" stroke-linecap="round" stroke-linejoin="round"/>
<g id="SVGRepo_iconCarrier"> <path style="fill:#3c3436;" d="M255.999,124.403c-20.91,0-37.921-17.012-37.921-37.921S235.09,48.56,255.999,48.56 s37.921,17.012,37.921,37.921S276.91,124.403,255.999,124.403z M255.999,75.647c-5.974,0-10.835,4.861-10.835,10.835 s4.861,10.835,10.835,10.835c5.974,0,10.835-4.861,10.835-10.835C266.834,80.508,261.975,75.647,255.999,75.647z"/> <path style="fill:#ffd1dd;" d="M255.999,107.374c-86.776,0-159.935,51.87-182.456,122.665h364.914 C415.936,159.244,342.776,107.374,255.999,107.374z"/> <g> <path style="fill:#3c3436;" d="M438.457,243.582H73.543c-4.32,0-8.382-2.061-10.932-5.55c-2.55-3.487-3.283-7.982-1.973-12.1 c11.93-37.502,37.642-71.227,72.401-94.959c35.588-24.299,78.107-37.144,122.962-37.144s87.374,12.843,122.96,37.144 c34.759,23.732,60.471,57.458,72.403,94.959c1.31,4.117,0.577,8.611-1.973,12.1C446.84,241.521,442.778,243.582,438.457,243.582z M93.4,216.495h325.2c-26.999-57.093-91.121-95.578-162.602-95.578S120.396,159.401,93.4,216.495z"/> <path style="fill:#3c3436;" d="M357.982,463.44H154.018c-16.374,0-32-6.123-44.001-17.243 c-36.865-34.159-57.167-79.18-57.167-126.769c0-9.888,0.891-19.815,2.65-29.504c1.334-7.362,8.381-12.262,15.744-10.908 c7.359,1.334,12.243,8.383,10.908,15.743c-1.469,8.098-2.214,16.398-2.214,24.669c0,39.961,17.22,77.924,48.491,106.9 c6.976,6.464,16.065,10.025,25.59,10.025h203.966c9.525,0,18.613-3.561,25.589-10.025c31.272-28.976,48.493-66.939,48.493-106.9 c0-8.271-0.745-16.572-2.214-24.672c-1.335-7.359,3.547-14.409,10.908-15.744c7.353-1.337,14.409,3.547,15.744,10.909 c1.758,9.69,2.649,19.618,2.649,29.507c0,47.589-20.303,92.609-57.168,126.769C389.984,457.317,374.357,463.44,357.982,463.44z"/> </g> <path style="fill:#ffd1dd;" d="M86.258,290.381H47.033c-18.42,0-33.49,15.071-33.49,33.491l0,0c0,18.42,15.07,33.491,33.49,33.491 H71.21c-3.149-12.193-4.817-24.89-4.817-37.935c0-9.22,0.832-18.269,2.432-27.087"/> <path style="fill:#3c3436;" d="M71.21,370.906H47.033C21.099,370.906,0,349.807,0,323.873s21.099-47.035,47.033-47.035h39.224 c7.48,0,13.543,6.065,13.543,13.543c0,7.479-6.063,13.543-13.543,13.543h-5.451c-0.578,5.141-0.871,10.328-0.871,15.503 c0,11.654,1.476,23.278,4.387,34.548c1.047,4.056,0.16,8.368-2.405,11.68C79.352,368.966,75.399,370.906,71.21,370.906z M47.033,303.925c-10.999,0-19.947,8.948-19.947,19.948c0,11,8.948,19.948,19.947,19.948h7.625 c-1.203-8.066-1.809-16.224-1.809-24.392c0-5.169,0.244-10.353,0.727-15.503h-6.543V303.925z"/> <path style="fill:#ffd1dd;" d="M443.174,292.34c1.601,8.819,2.432,17.868,2.432,27.089c0,13.044-1.667,25.741-4.817,37.935h24.176 c18.42,0,33.49-15.071,33.49-33.491l0,0c0-18.42-15.07-33.491-33.49-33.491h-39.224"/> <path style="fill:#3c3436;" d="M464.967,370.906h-24.178c-4.189,0-8.142-1.939-10.707-5.251c-2.565-3.311-3.454-7.624-2.405-11.68 c2.91-11.269,4.387-22.892,4.387-34.548c0-5.175-0.293-10.361-0.871-15.503h-5.451c-7.479,0-13.543-6.065-13.543-13.543 s6.065-13.543,13.543-13.543h39.226c25.933,0,47.033,21.099,47.033,47.035S490.901,370.906,464.967,370.906z M457.342,343.819h7.626 c10.999,0,19.947-8.948,19.947-19.948s-8.947-19.948-19.947-19.948h-6.544c0.483,5.152,0.727,10.334,0.727,15.503 C459.15,327.597,458.544,335.753,457.342,343.819z"/> </g>
</svg>