<?xml version="1.0" encoding="utf-8"?>
<!-- Generator: Adobe Illustrator 27.0.0, SVG Export Plug-In . SVG Version: 6.00 Build 0)  -->
<svg version="1.1" id="Layer_1" xmlns="http://www.w3.org/2000/svg" xmlns:xlink="http://www.w3.org/1999/xlink" x="0px" y="0px"
	 viewBox="0 0 800 800" style="enable-background:new 0 0 800 800;" xml:space="preserve">
<style type="text/css">
	.st0{fill:#3C3436;}
	.st1{fill:#FFD1DD;}
</style>
<g>
	<path class="st0" d="M575.1,798.3H190.4c-6.8,0-13.3-2.9-17.7-8.1c-4.5-5.1-6.5-11.9-5.5-18.7l42.8-305.9c0-0.1,0-0.3,0.1-0.4
		c3.2-20.7,13.8-39.5,29.6-53.1c15.9-13.6,36.1-21.1,57.1-21.1h172.1c20.9,0,41.2,7.5,57.1,21.1c15.9,13.6,26.4,32.5,29.6,53.1
		c0,0.1,0,0.2,0.1,0.4l7.6,54.4c1.8,12.9-7.2,24.7-20,26.5c-12.9,1.8-24.7-7.2-26.5-20l-7.6-54.2c-3.2-19.9-20.1-34.3-40.2-34.3
		H296.7c-20.2,0-37,14.4-40.2,34.3l-39,279h330.7l-13.7-97.7c-1.8-12.9,7.2-24.7,20-26.5c12.8-1.8,24.7,7.2,26.5,20l17.4,124.4
		c0.9,6.7-1.1,13.5-5.5,18.7C588.4,795.4,581.9,798.3,575.1,798.3z"/>
</g>
<g>
	<circle class="st1" cx="382.8" cy="170.6" r="145.4"/>
	<path class="st0" d="M382.8,339.5c-93.1,0-168.9-75.8-168.9-168.9c0-93.1,75.8-168.9,168.9-168.9c93.1,0,168.9,75.8,168.9,168.9
		C551.7,263.7,475.9,339.5,382.8,339.5z M382.8,48.7c-67.2,0-121.9,54.7-121.9,121.9s54.7,121.9,121.9,121.9s121.9-54.7,121.9-121.9
		S450,48.7,382.8,48.7z"/>
</g>
</svg>
