<!DOCTYPE svg PUBLIC "-//W3C//DTD SVG 1.1//EN" "http://www.w3.org/Graphics/SVG/1.1/DTD/svg11.dtd">
<!-- Uploaded to: SVG Repo, www.svgrepo.com, Transformed by: SVG Repo Mixer Tools -->
<svg height="800px" width="800px" version="1.1" id="Layer_1" xmlns="http://www.w3.org/2000/svg" xmlns:xlink="http://www.w3.org/1999/xlink" viewBox="0 0 512 512" xml:space="preserve" fill="#000000">
<g id="SVGRepo_bgCarrier" stroke-width="0"/>
<g id="SVGRepo_tracerCarrier" stroke-linecap="round" stroke-linejoin="round"/>
<g id="SVGRepo_iconCarrier"> <path style="fill:#3c3436;" d="M251.973,159.309h-85.791c-7.46,0-13.508-6.049-13.508-13.508s6.048-13.508,13.508-13.508h85.791 c7.46,0,13.508,6.049,13.508,13.508S259.433,159.309,251.973,159.309z"/> <path style="fill:#ffd1dd;" d="M192.259,114.886c-13.783-2.561-22.356-4.204-74.439-4.204c-71.873,0-104.311,35.119-104.311,35.119 s32.438,35.119,104.311,35.119c51.168,0,60.656-1.643,74.439-4.204C192.204,176.159,192.204,115.444,192.259,114.886z"/> <g> <path style="fill:#3c3436;" d="M117.819,194.428c-76.901,0-112.745-37.851-114.234-39.462c-4.78-5.175-4.78-13.155,0-18.33 c1.489-1.61,37.333-39.461,114.234-39.461c53.062,0,62.463,1.747,76.694,4.39l0.211,0.039c6.599,1.225,11.251,7.09,11.035,13.712 c-0.046,3.724-0.046,57.244,0,60.968c0.216,6.622-4.436,12.485-11.033,13.712C179.499,192.826,168.42,194.428,117.819,194.428z M35.113,145.804c13.973,9.08,40.837,21.607,82.706,21.607c36.113,0,50.78-0.808,60.904-2.14c-0.028-11.286-0.028-27.664,0-38.949 c-10.059-1.328-24.657-2.133-60.904-2.133C75.97,124.19,49.11,136.706,35.113,145.804z"/> <path style="fill:#3c3436;" d="M373.882,235.345c-44.577,0-86.514-13.766-112.182-36.828c-5.549-4.984-6.007-13.525-1.021-19.075 c4.984-5.55,13.525-6.01,19.076-1.021c20.845,18.726,56.032,29.908,94.127,29.908c60.224,0,111.103-28.634,111.103-62.528 c0-33.893-50.879-62.527-111.103-62.527c-59.773,0-108.401,28.051-108.401,62.527c0,7.459-6.047,13.508-13.508,13.508 c-7.46,0-13.508-6.049-13.508-13.508c0-50.212,59.482-89.543,135.417-89.543c35.733,0,69.524,8.611,95.148,24.247 C496.739,97.413,512,120.602,512,145.801s-15.26,48.388-42.97,65.296C443.406,226.734,409.614,235.345,373.882,235.345z"/> <path style="fill:#3c3436;" d="M373.882,192.001c-14.333,0-28.402-0.656-41.816-1.955c-7.425-0.717-12.862-7.319-12.145-14.744 c0.719-7.424,7.32-12.868,14.745-12.145c12.553,1.213,25.749,1.829,39.216,1.829c27.78,0,54.557-2.671,75.397-7.517 c18.184-4.231,26.958-8.952,30.368-11.667c-3.411-2.715-12.184-7.436-30.368-11.667c-20.84-4.848-47.617-7.517-75.397-7.517 s-54.557,2.671-75.397,7.517c-21.451,4.991-29.807,10.665-31.711,12.92c-0.634,6.871-6.414,12.253-13.451,12.253 c-7.46,0-13.508-6.049-13.508-13.508c0-44.903,120.343-46.2,134.066-46.2s134.066,1.297,134.066,46.2 S387.605,192.001,373.882,192.001z"/> <path style="fill:#3c3436;" d="M384.73,455.742H127.269c-9.832,0-19.677-2.287-28.471-6.616 c-5.631-2.754-10.833-6.327-15.431-10.602c-36.752-34.045-57.003-78.944-57.003-126.411c0-9.881,0.886-19.784,2.634-29.426 c1.166-6.426,6.761-11.098,13.292-11.098h287.097c7.46,0,13.508,6.049,13.508,13.508s-6.048,13.508-13.508,13.508H54.04 c-0.438,4.479-0.658,8.995-0.658,13.508c0,39.856,17.177,77.718,48.366,106.61c2.672,2.485,5.679,4.548,8.953,6.151 c5.132,2.526,10.851,3.854,16.569,3.854h257.461c5.718,0,11.437-1.326,16.539-3.839c3.305-1.617,6.312-3.681,8.965-6.149 c31.209-28.908,48.385-66.771,48.385-106.627c0-8.267-0.74-16.551-2.202-24.624c-1.328-7.342,3.546-14.37,10.886-15.698 c7.338-1.335,14.37,3.543,15.699,10.886c1.747,9.654,2.634,19.558,2.634,29.435c0,47.467-20.251,92.366-57.022,126.429 c-4.579,4.258-9.781,7.831-15.442,10.6C404.407,453.454,394.563,455.742,384.73,455.742z"/> <path style="fill:#3c3436;" d="M470.412,298.591h-59.07c-7.46,0-13.508-6.049-13.508-13.508s6.047-13.508,13.508-13.508h59.07 c7.46,0,13.508,6.049,13.508,13.508S477.871,298.591,470.412,298.591z"/> </g> <path style="fill:#ffd1dd;" d="M407.236,437.006c-6.943,3.417-14.629,5.228-22.504,5.228H127.271c-7.875,0-15.561-1.81-22.504-5.228 c27.556-30.083,84.924-50.763,151.235-50.763S379.68,406.923,407.236,437.006z"/> <path style="fill:#3c3436;" d="M384.73,455.742H127.269c-9.832,0-19.677-2.287-28.471-6.616c-3.816-1.879-6.524-5.442-7.309-9.622 c-0.786-4.181,0.442-8.484,3.315-11.622c31.159-34.016,92.925-55.146,161.195-55.146s130.037,21.132,161.195,55.146 c2.872,3.137,4.101,7.441,3.315,11.622c-0.786,4.179-3.493,7.743-7.309,9.622C404.407,453.454,394.563,455.742,384.73,455.742z M136.355,428.726h239.291c-29.355-18.038-73.131-28.974-119.646-28.974S165.71,410.686,136.355,428.726z"/> </g>
</svg>